<?xml version="1.0" encoding="UTF-8"?>
<!DOCTYPE svg PUBLIC "-//W3C//DTD SVG 1.1//EN" "http://www.w3.org/Graphics/SVG/1.1/DTD/svg11.dtd">
<!-- Creator: CorelDRAW X8 -->
<svg xmlns="http://www.w3.org/2000/svg" xml:space="preserve" width="132.292mm" height="132.292mm" version="1.1" style="shape-rendering:geometricPrecision; text-rendering:geometricPrecision; image-rendering:optimizeQuality; fill-rule:evenodd; clip-rule:evenodd"
viewBox="0 0 13229 13229"
 xmlns:xlink="http://www.w3.org/1999/xlink">
 <defs>
  <style type="text/css">
   <![CDATA[
    .fil1 {fill:#619DCE;fill-rule:nonzero}
    .fil0 {fill:#3B4E90;fill-rule:nonzero}
   ]]>
  </style>
 </defs>
 <g id="Camada_x0020_1">
  <metadata id="CorelCorpID_0Corel-Layer"/>
  <g id="_1874863292656">
   <path class="fil0" d="M5401 3876c-203,479 -198,568 -1201,2334 -403,710 -834,1413 -901,2255 -102,1263 383,2259 1472,2900 1091,642 2216,593 3250,-135 1046,-736 1437,-1786 1235,-3045 -91,-569 -348,-1079 -625,-1577 -622,-1116 -1192,-2249 -1673,-3443 -121,-300 -137,-540 -137,-540 137,540 1317,2482 1932,3438 327,508 641,1023 842,1598 524,1503 45,3101 -1210,4027 -1244,917 -2938,926 -4187,20 -1264,-915 -1769,-2518 -1268,-4013 194,-578 495,-1102 826,-1607 1492,-2276 1961,-3872 2323,-4767 18,-46 34,-84 43,-109 -162,1192 -473,2082 -721,2664z"/>
   <path class="fil0" d="M5401 3734c-203,479 -198,567 -1201,2334 -403,709 -834,1413 -901,2255 -102,1263 383,2259 1472,2900 1091,642 2216,593 3250,-135 1046,-736 1437,-1786 1235,-3045 -91,-569 -348,-1079 -625,-1577 -622,-1117 -1192,-2249 -1673,-3443 -121,-300 -137,-540 -137,-540 137,540 1317,2482 1932,3438 327,508 641,1023 842,1598 524,1503 45,3100 -1210,4027 -1244,917 -2938,926 -4187,20 -1264,-915 -1769,-2518 -1268,-4013 194,-578 495,-1102 826,-1607 1492,-2276 1961,-3873 2323,-4767 18,-46 34,-84 43,-109 -162,1192 -473,2082 -721,2664z"/>
   <path class="fil0" d="M5401 3649c-203,479 -198,568 -1201,2334 -403,710 -834,1413 -901,2255 -102,1263 383,2259 1472,2900 1091,642 2216,593 3250,-134 1046,-737 1437,-1787 1235,-3046 -91,-569 -348,-1079 -625,-1577 -622,-1117 -1192,-2249 -1673,-3443 -121,-300 -137,-540 -137,-540 137,540 1317,2482 1932,3438 327,508 641,1023 842,1598 524,1503 45,3100 -1210,4027 -1244,917 -2938,926 -4187,20 -1264,-915 -1769,-2518 -1268,-4013 194,-578 495,-1102 826,-1607 1492,-2276 1961,-3873 2323,-4767 18,-46 34,-84 43,-109 -162,1192 -473,2082 -721,2664z"/>
   <path class="fil0" d="M5401 3876c-203,479 -198,568 -1201,2334 -403,710 -834,1413 -901,2255 -102,1263 383,2259 1472,2900 1091,642 2216,593 3250,-135 1046,-736 1437,-1786 1235,-3045 -91,-569 -348,-1079 -625,-1577 -622,-1116 -1192,-2249 -1673,-3443 -121,-300 -137,-540 -137,-540 137,540 1317,2482 1932,3438 327,508 641,1023 842,1598 524,1503 45,3101 -1210,4027 -1244,917 -2938,926 -4187,20 -1264,-915 -1769,-2518 -1268,-4013 194,-578 495,-1102 826,-1607 1492,-2276 1961,-3872 2323,-4767 18,-46 34,-84 43,-109 -162,1192 -473,2082 -721,2664z"/>
   <path class="fil1" d="M5698 5291c-135,320 -132,379 -801,1556 -268,473 -556,942 -601,1504 -67,842 256,1506 982,1933 727,428 1477,396 2166,-90 697,-491 958,-1190 824,-2030 -61,-379 -232,-720 -417,-1051 -415,-745 -795,-1500 -1115,-2296 -81,-200 -92,-360 -92,-360 92,360 879,1655 1289,2292 217,339 427,682 561,1066 349,1002 30,2067 -807,2684 -829,612 -1958,617 -2791,14 -843,-610 -1180,-1679 -846,-2676 130,-385 330,-734 551,-1071 995,-1517 1307,-2582 1549,-3178 12,-31 22,-56 29,-72 -108,794 -316,1387 -481,1775z"/>
   <path class="fil1" d="M5698 5200c-135,319 -132,378 -801,1556 -268,473 -556,942 -601,1503 -67,842 256,1506 982,1933 727,428 1477,396 2166,-89 697,-491 958,-1191 824,-2031 -61,-379 -232,-719 -417,-1051 -415,-744 -795,-1499 -1115,-2296 -81,-199 -92,-359 -92,-359 92,359 879,1654 1289,2292 217,338 427,681 561,1065 349,1002 30,2067 -807,2684 -829,612 -1958,618 -2791,14 -843,-610 -1180,-1679 -846,-2676 130,-385 330,-734 551,-1070 995,-1518 1307,-2582 1549,-3179 12,-31 22,-56 29,-72 -108,794 -316,1388 -481,1776z"/>
   <path class="fil1" d="M5698 5057c-135,320 -132,379 -801,1556 -268,473 -556,943 -601,1504 -67,842 256,1506 982,1933 727,428 1477,396 2166,-90 697,-490 958,-1190 824,-2030 -61,-379 -232,-719 -417,-1051 -415,-745 -795,-1500 -1115,-2296 -81,-199 -92,-359 -92,-359 92,359 879,1654 1289,2292 217,338 427,681 561,1065 349,1002 30,2067 -807,2684 -829,612 -1958,618 -2791,14 -843,-610 -1180,-1679 -846,-2676 130,-385 330,-734 551,-1071 995,-1517 1307,-2582 1549,-3178 12,-31 22,-56 29,-72 -108,794 -316,1387 -481,1775z"/>
  </g>
 </g>
</svg>
