<?xml version="1.0" encoding="UTF-8"?>
<!DOCTYPE svg PUBLIC "-//W3C//DTD SVG 1.1//EN" "http://www.w3.org/Graphics/SVG/1.1/DTD/svg11.dtd">
<!-- Creator: CorelDRAW X8 -->
<svg xmlns="http://www.w3.org/2000/svg" xml:space="preserve" width="591px" height="591px" version="1.1" style="shape-rendering:geometricPrecision; text-rendering:geometricPrecision; image-rendering:optimizeQuality; fill-rule:evenodd; clip-rule:evenodd"
viewBox="0 0 591 591"
 xmlns:xlink="http://www.w3.org/1999/xlink">
 <defs>
  <style type="text/css">
   <![CDATA[
    .fil0 {fill:none}
    .fil2 {fill:#3BA0D3;fill-rule:nonzero}
    .fil4 {fill:#2AA1D4;fill-rule:nonzero}
    .fil1 {fill:#3157A4;fill-rule:nonzero}
    .fil3 {fill:#29579F;fill-rule:nonzero}
   ]]>
  </style>
 </defs>
 <g id="Camada_x0020_1">
  <metadata id="CorelCorpID_0Corel-Layer"/>
  <rect class="fil0" width="591" height="591"/>
  <g id="_2336527865936">
   <path class="fil1" d="M215 282c-3,0 -6,0 -9,-1 -2,-1 -5,-2 -6,-3l3 -8c2,1 3,2 6,3 2,1 4,1 6,1 1,0 3,0 3,0 1,-1 2,-1 2,-1 1,-1 1,-1 1,-2 0,-1 0,-2 -1,-2 -1,0 -2,-1 -3,-1 -1,-1 -3,-1 -4,-1 -2,0 -3,-1 -5,-1 -1,-1 -2,-1 -4,-2 -1,-1 -2,-2 -3,-3 0,-2 -1,-3 -1,-5 0,-2 1,-4 2,-6 1,-2 3,-3 5,-4 3,-1 6,-2 9,-2 3,0 5,0 7,1 3,0 5,1 7,2l-4 8c-1,-1 -3,-2 -5,-2 -1,-1 -3,-1 -5,-1 -1,0 -2,0 -3,1 -1,0 -2,0 -2,1 0,0 -1,1 -1,1 0,1 1,2 2,2 0,1 1,1 2,1 2,1 3,1 5,1 1,1 2,1 4,1 1,1 3,2 4,2 1,1 2,2 3,3 1,2 1,3 1,5 0,2 -1,4 -2,6 -1,2 -3,3 -5,4 -2,1 -5,2 -9,2zm14 -1l16 -36 10 0 16 36 -11 0 -12 -31 4 0 -13 31 -10 0zm9 -7l2 -7 18 0 3 7 -23 0zm34 7l0 -36 10 0 0 28 17 0 0 8 -27 0zm29 0l0 -36 10 0 0 36 -10 0zm26 0l-16 -36 11 0 14 31 -7 0 13 -31 11 0 -16 36 -10 0zm19 0l17 -36 10 0 16 36 -11 0 -12 -31 4 0 -13 31 -11 0zm9 -7l3 -7 18 0 2 7 -23 0z"/>
   <path class="fil2" d="M249 344l0 -48 22 0c4,0 8,1 11,2 4,1 6,3 8,6 1,3 2,6 2,10 0,3 -1,6 -2,9 -2,3 -4,5 -8,6 -3,1 -7,2 -11,2l-14 0 6 -6 0 19 -14 0zm14 -17l-6 -7 13 0c3,0 5,0 7,-1 1,-2 2,-3 2,-5 0,-3 -1,-4 -2,-6 -2,-1 -4,-2 -7,-2l-13 0 6 -6 0 27zm32 17l0 -48 22 0c5,0 8,1 12,2 3,1 5,3 7,6 2,3 3,6 3,10 0,3 -1,6 -3,9 -2,2 -4,4 -7,6 -4,1 -7,2 -12,2l-14 0 6 -6 0 19 -14 0zm30 0l-12 -18 15 0 11 18 -14 0zm-16 -17l-6 -7 13 0c3,0 5,0 7,-1 1,-2 2,-3 2,-5 0,-3 -1,-4 -2,-6 -2,-1 -4,-2 -7,-2l-13 0 6 -6 0 27zm58 18c-4,0 -8,-1 -11,-2 -3,-2 -6,-3 -8,-5 -3,-3 -5,-5 -6,-8 -1,-3 -2,-7 -2,-10 0,-4 1,-7 2,-10 1,-3 3,-6 6,-8 2,-2 5,-4 8,-5 3,-2 7,-2 11,-2 4,0 7,0 10,2 3,1 6,3 9,5 2,2 4,5 5,8 2,3 2,6 2,10 0,3 0,7 -2,10 -1,3 -3,5 -5,8 -3,2 -6,3 -9,5 -3,1 -6,2 -10,2zm0 -12c1,0 3,0 5,-1 1,0 3,-1 4,-2 1,-2 2,-3 3,-5 0,-1 1,-3 1,-5 0,-2 -1,-4 -1,-6 -1,-2 -2,-3 -3,-4 -1,-1 -3,-2 -4,-3 -2,-1 -4,-1 -5,-1 -2,0 -4,0 -5,1 -2,1 -3,2 -5,3 -1,1 -2,2 -2,4 -1,2 -1,4 -1,6 0,2 0,4 1,5 0,2 1,3 2,5 2,1 3,2 5,2 1,1 3,1 5,1z"/>
   <path class="fil3" d="M211 305c-1,2 -1,2 -6,11 -2,4 -4,7 -4,11 -1,7 1,12 7,15 5,3 11,3 16,-1 5,-3 7,-9 6,-15 0,-3 -2,-5 -3,-8 -3,-5 -6,-11 -8,-17 -1,-1 -1,-3 -1,-3 1,3 7,13 10,17 1,3 3,6 4,8 3,8 0,16 -6,20 -6,5 -15,5 -21,1 -6,-5 -9,-13 -6,-20 1,-3 2,-6 4,-8 7,-12 10,-20 11,-24 0,0 1,-1 1,-1 -1,6 -3,11 -4,14z"/>
   <path class="fil3" d="M211 304c-1,2 -1,3 -6,12 -2,3 -4,7 -4,11 -1,6 1,11 7,14 5,3 11,3 16,0 5,-4 7,-9 6,-16 0,-2 -2,-5 -3,-8 -3,-5 -6,-11 -8,-17 -1,-1 -1,-2 -1,-2 1,2 7,12 10,17 1,2 3,5 4,8 3,7 0,15 -6,20 -6,4 -15,4 -21,0 -6,-5 -9,-13 -6,-20 1,-3 2,-6 4,-8 7,-11 10,-19 11,-24 0,0 1,0 1,0 -1,6 -3,10 -4,13z"/>
   <path class="fil3" d="M211 303c-1,3 -1,3 -6,12 -2,4 -4,7 -4,11 -1,7 1,12 7,15 5,3 11,3 16,-1 5,-4 7,-9 6,-15 0,-3 -2,-5 -3,-8 -3,-5 -6,-11 -8,-17 -1,-2 -1,-3 -1,-3 1,3 7,13 10,17 1,3 3,5 4,8 3,8 0,16 -6,20 -6,5 -15,5 -21,0 -6,-4 -9,-12 -6,-20 1,-2 2,-5 4,-8 7,-11 10,-19 11,-23 0,0 1,-1 1,-1 -1,6 -3,11 -4,13z"/>
   <path class="fil3" d="M211 305c-1,2 -1,2 -6,11 -2,4 -4,7 -4,11 -1,7 1,12 7,15 5,3 11,3 16,-1 5,-3 7,-9 6,-15 0,-3 -2,-5 -3,-8 -3,-5 -6,-11 -8,-17 -1,-1 -1,-3 -1,-3 1,3 7,13 10,17 1,3 3,6 4,8 3,8 0,16 -6,20 -6,5 -15,5 -21,1 -6,-5 -9,-13 -6,-20 1,-3 2,-6 4,-8 7,-12 10,-20 11,-24 0,0 1,-1 1,-1 -1,6 -3,11 -4,14z"/>
   <path class="fil4" d="M213 312c-1,1 -1,2 -4,7 -2,3 -3,5 -3,8 -1,4 1,7 4,10 4,2 8,1 11,-1 4,-2 5,-6 4,-10 0,-2 -1,-4 -2,-5 -2,-4 -4,-8 -5,-12 -1,-1 -1,-2 -1,-2 1,2 5,9 7,12 1,2 2,3 2,5 2,5 1,10 -4,14 -4,3 -9,3 -13,0 -5,-3 -6,-9 -5,-14 1,-2 2,-3 3,-5 5,-8 7,-13 8,-16 0,0 0,0 0,0 -1,4 -2,7 -2,9z"/>
   <path class="fil4" d="M213 311c-1,2 -1,2 -4,8 -2,2 -3,5 -3,7 -1,5 1,8 4,10 4,2 8,2 11,0 4,-3 5,-6 4,-11 0,-1 -1,-3 -2,-5 -2,-3 -4,-7 -5,-11 -1,-1 -1,-2 -1,-2 1,2 5,8 7,11 1,2 2,4 2,6 2,5 1,10 -4,13 -4,3 -9,3 -13,0 -5,-3 -6,-8 -5,-13 1,-2 2,-4 3,-5 5,-8 7,-13 8,-16 0,0 0,-1 0,-1 -1,4 -2,7 -2,9z"/>
   <path class="fil4" d="M213 310c-1,2 -1,2 -4,8 -2,3 -3,5 -3,8 -1,4 1,7 4,9 4,2 8,2 11,0 4,-3 5,-6 4,-10 0,-2 -1,-4 -2,-5 -2,-4 -4,-8 -5,-12 -1,-1 -1,-2 -1,-2 1,2 5,9 7,12 1,1 2,3 2,5 2,5 1,10 -4,13 -4,3 -9,3 -13,0 -5,-3 -6,-8 -5,-13 1,-2 2,-3 3,-5 5,-8 7,-13 8,-16 0,0 0,0 0,0 -1,4 -2,7 -2,8z"/>
  </g>
 </g>
</svg>
